<svg aria-hidden="true" style="position: absolute; width: 0; height: 0; overflow: hidden;" version="1.1" xmlns="http://www.w3.org/2000/svg" xmlns:xlink="http://www.w3.org/1999/xlink">
<defs>
<symbol id="icon-controller-jump-to-start" viewBox="0 0 20 20">
<path d="M14.959 4.571l-7.203 4.949c0 0-0.279 0.201-0.279 0.481s0.279 0.479 0.279 0.479l7.203 4.951c0.572 0.38 1.041 0.099 1.041-0.626v-9.609c0-0.727-0.469-1.008-1.041-0.625zM6 4h-1c-0.553 0-1 0.048-1 0.6v10.8c0 0.552 0.447 0.6 1 0.6h1c0.553 0 1-0.048 1-0.6v-10.8c0-0.552-0.447-0.6-1-0.6z"></path>
</symbol>
<symbol id="icon-controller-next" viewBox="0 0 20 20">
<path d="M12.244 9.52l-7.203-4.949c-0.572-0.383-1.041-0.102-1.041 0.625v9.609c0 0.725 0.469 1.006 1.041 0.625l7.203-4.951c0 0 0.279-0.199 0.279-0.478s-0.279-0.481-0.279-0.481zM14 4h1c0.553 0 1 0.048 1 0.6v10.8c0 0.552-0.447 0.6-1 0.6h-1c-0.553 0-1-0.048-1-0.6v-10.8c0-0.552 0.447-0.6 1-0.6z"></path>
</symbol>
<symbol id="icon-controller-paus" viewBox="0 0 20 20">
<path d="M15 3h-2c-0.553 0-1 0.048-1 0.6v12.8c0 0.552 0.447 0.6 1 0.6h2c0.553 0 1-0.048 1-0.6v-12.8c0-0.552-0.447-0.6-1-0.6zM7 3h-2c-0.553 0-1 0.048-1 0.6v12.8c0 0.552 0.447 0.6 1 0.6h2c0.553 0 1-0.048 1-0.6v-12.8c0-0.552-0.447-0.6-1-0.6z"></path>
</symbol>
<symbol id="icon-controller-play" viewBox="0 0 20 20">
<path d="M15 10.001c0 0.299-0.305 0.514-0.305 0.514l-8.561 5.303c-0.624 0.409-1.134 0.106-1.134-0.669v-10.297c0-0.777 0.51-1.078 1.135-0.67l8.561 5.305c-0.001 0 0.304 0.215 0.304 0.514z"></path>
</symbol>
<symbol id="icon-heart-outlined" viewBox="0 0 20 20">
<path d="M17.19 4.156c-1.672-1.535-4.383-1.535-6.055 0l-1.135 1.041-1.136-1.041c-1.672-1.535-4.382-1.535-6.054 0-1.881 1.726-1.881 4.519 0 6.245l7.19 6.599 7.19-6.599c1.88-1.726 1.88-4.52 0-6.245zM16.124 9.375l-6.124 5.715-6.125-5.715c-0.617-0.567-0.856-1.307-0.856-2.094s0.138-1.433 0.756-1.999c0.545-0.501 1.278-0.777 2.063-0.777s1.517 0.476 2.062 0.978l2.1 1.825 2.099-1.826c0.546-0.502 1.278-0.978 2.063-0.978s1.518 0.276 2.063 0.777c0.618 0.566 0.755 1.212 0.755 1.999s-0.238 1.528-0.856 2.095z"></path>
</symbol>
<symbol id="icon-heart" viewBox="0 0 20 20">
<path d="M17.19 4.155c-1.672-1.534-4.383-1.534-6.055 0l-1.135 1.042-1.136-1.042c-1.672-1.534-4.382-1.534-6.054 0-1.881 1.727-1.881 4.52 0 6.246l7.19 6.599 7.19-6.599c1.88-1.726 1.88-4.52 0-6.246z"></path>
</symbol>
<symbol id="icon-magnifying-glass" viewBox="0 0 20 20">
<path d="M17.545 15.467l-3.779-3.779c0.57-0.935 0.898-2.035 0.898-3.21 0-3.417-2.961-6.377-6.378-6.377s-6.186 2.769-6.186 6.186c0 3.416 2.961 6.377 6.377 6.377 1.137 0 2.2-0.309 3.115-0.844l3.799 3.801c0.372 0.371 0.975 0.371 1.346 0l0.943-0.943c0.371-0.371 0.236-0.84-0.135-1.211zM4.004 8.287c0-2.366 1.917-4.283 4.282-4.283s4.474 2.107 4.474 4.474c0 2.365-1.918 4.283-4.283 4.283s-4.473-2.109-4.473-4.474z"></path>
</symbol>
</defs>
</svg>
